# xmcd
#
# Track frame offsets:
#	150
#	21680
#	43586
#	61891
#	83646
#	103001
#	122507
#	137362
#	155967
#	168573
#	190178
#	212533
#	229939
#	244794
#	264224
#	289355
#
# Disc length: 4196 seconds
#
# Revision: 0
# Processed by: cddbd v1.5.2PL0 Copyright (c) Steve Scherf et al.
# Submitted via: EasyCDDAExtractor 10.0.2.1
#
DISCID=e2106210
DTITLE=Robbie Williams - Rudebox
DYEAR=2006
DGENRE=Pop
TTITLE0=Rudebox
TTITLE1=Viva Life On Mars
TTITLE2=Lovelight
TTITLE3=Bongo Bong - Je Ne T'Aime
TTITLE4=She's Madonna
TTITLE5=Keep On
TTITLE6=Good Doctor
TTITLE7=The Actor
TTITLE8=Never Touch That Switch
TTITLE9=Louise
TTITLE10=We're The Pet Shop Boys
TTITLE11=Burslem Normals
TTITLE12=Kiss Me
TTITLE13=The '80s
TTITLE14=The '90s
TTITLE15=Summertime
EXTD=
EXTT0=
EXTT1=
EXTT2=
EXTT3=
EXTT4=
EXTT5=
EXTT6=
EXTT7=
EXTT8=
EXTT9=
EXTT10=
EXTT11=
EXTT12=
EXTT13=
EXTT14=
EXTT15=
PLAYORDER=
